<!DOCTYPE svg PUBLIC "-//W3C//DTD SVG 1.1//EN" "http://www.w3.org/Graphics/SVG/1.1/DTD/svg11.dtd"[]><svg xmlns="http://www.w3.org/2000/svg" version="1.1" width="610" height="610" style="shape-rendering:geometricPrecision; text-rendering:geometricPrecision; image-rendering:optimizeQuality; fill-rule:evenodd; clip-rule:evenodd" xmlns:xlink="http://www.w3.org/1999/xlink" viewBox="0 0 610 610"><g><path style="opacity:0.989" fill="#b71d1c" d="M 289.5,-0.5 C 299.833,-0.5 310.167,-0.5 320.5,-0.5C 438.552,9.74244 525.052,67.0758 580,171.5C 595.772,204.604 605.606,239.27 609.5,275.5C 609.5,295.167 609.5,314.833 609.5,334.5C 594.587,447.867 536.253,530.367 434.5,582C 402.507,596.495 369.174,605.662 334.5,609.5C 314.833,609.5 295.167,609.5 275.5,609.5C 167.436,595.582 86.9357,541.248 34,446.5C 13.7986,406.751 2.29857,364.751 -0.5,320.5C -0.5,309.833 -0.5,299.167 -0.5,288.5C 7.36524,191.585 50.0319,114.085 127.5,56C 176.31,22.3407 230.31,3.50737 289.5,-0.5 Z" /></g><g><path style="opacity:1" fill="#fefcfc" d="M 280.5,31.5 C 381.171,26.6026 462.671,63.2693 525,141.5C 583.811,226.458 594.144,317.125 556,413.5C 513.455,505.02 442.288,559.186 342.5,576C 242.025,586.858 158.858,554.358 93,478.5C 39.205,409.977 20.5383,332.644 37,246.5C 56.7099,165.197 102.877,104.031 175.5,63C 208.65,45.8905 243.65,35.3905 280.5,31.5 Z" /></g><g><path style="opacity:1" fill="#b71d1c" d="M 286.5,64.5 C 384.257,61.6205 459.424,100.954 512,182.5C 556.863,264.65 556.529,346.65 511,428.5C 466.122,498.62 401.956,537.453 318.5,545C 223.724,546.869 150.558,508.369 99,429.5C 57.2473,354.991 53.5806,278.658 88,200.5C 130.11,120.248 196.277,74.9149 286.5,64.5 Z" /></g><g><path style="opacity:1" fill="#fefefe" d="M 432.5,396.5 C 347.5,396.5 262.5,396.5 177.5,396.5C 177.737,395.209 177.404,394.209 176.5,393.5C 166.479,355.085 155.979,316.752 145,278.5C 124.653,275.486 116.32,263.819 120,243.5C 127.485,228.844 138.985,224.344 154.5,230C 166.668,236.829 171.334,246.996 168.5,260.5C 187.833,271.833 207.167,283.167 226.5,294.5C 248.217,259.567 269.55,224.4 290.5,189C 279.41,178.297 277.577,166.131 285,152.5C 298.933,139.012 312.6,139.345 326,153.5C 333.493,167.029 331.326,178.863 319.5,189C 340.635,224.298 361.968,259.465 383.5,294.5C 402.833,283.167 422.167,271.833 441.5,260.5C 439.222,244.548 445.555,233.715 460.5,228C 483.283,227.115 493.117,237.949 490,260.5C 485.545,271.447 477.378,277.114 465.5,277.5C 454.336,317.16 443.336,356.827 432.5,396.5 Z" /></g><g><path style="opacity:1" fill="#d47a7a" d="M 176.5,393.5 C 177.404,394.209 177.737,395.209 177.5,396.5C 262.5,396.5 347.5,396.5 432.5,396.5C 347.335,397.499 262.002,397.833 176.5,397.5C 176.5,396.167 176.5,394.833 176.5,393.5 Z" /></g><g><path style="opacity:1" fill="#fefbfb" d="M 182.5,424.5 C 264.167,424.333 345.834,424.5 427.5,425C 445.51,431.189 450.01,442.689 441,459.5C 438.441,462.531 435.274,464.698 431.5,466C 347.167,466.667 262.833,466.667 178.5,466C 169.957,462.112 165.29,455.446 164.5,446C 165.298,434.376 171.298,427.209 182.5,424.5 Z" /></g></svg>